<svg width="74" height="272" viewBox="0 0 74 272" fill="none" xmlns="http://www.w3.org/2000/svg">
<path d="M3.51611 267L27.5161 270.5V266L29.5161 262.5L31.0161 258.5L37.5161 251L41.5161 245L53.0161 190.5L66.0161 133.5L70.5161 112L73.0161 85.5V66L71.5161 51.5L67.5161 36L59.0161 18.5L50.0161 6L43.5161 0.5H35.5161L46.0161 14L52.5161 26L57.0161 39V56.5V78.5L51.5161 106.5L42.5161 136.5L29.5161 169.5L16.5161 199.5L2.51611 228.5L0.516113 232.5L1.51611 240L2.51611 243.5L5.01611 249V254V261L3.51611 267Z" fill="#F3D8BA" stroke="black"/>
</svg>
